REM MD5 42fa98fed227c3e4aa49b8eda2d2c675
FILE "Hyper PlayStation Re-mix No. 5 (Japan).bin" BINARY
  TRACK 01 MODE2/2352
    INDEX 01 00:00:00
  TRACK 02 AUDIO
    INDEX 00 36:44:09
    INDEX 01 36:47:09
  TRACK 03 AUDIO
    INDEX 00 38:17:47
    INDEX 01 38:20:47
REM LEADOUT 42:46:16
